<svg width="173" height="45" viewBox="0 0 173 45" fill="none" xmlns="http://www.w3.org/2000/svg">
<path d="M7.28 33.2525C5.772 33.2525 4.472 33.0098 3.38 32.5245C2.30533 32.0218 1.31733 31.2678 0.416 30.2625L3.068 27.6365C3.65733 28.3125 4.30733 28.8412 5.018 29.2225C5.746 29.5865 6.58667 29.7685 7.54 29.7685C8.40667 29.7685 9.074 29.6125 9.542 29.3005C10.0273 28.9885 10.27 28.5552 10.27 28.0005C10.27 27.4978 10.114 27.0905 9.802 26.7785C9.49 26.4665 9.074 26.1978 8.554 25.9725C8.05133 25.7472 7.488 25.5305 6.864 25.3225C6.25733 25.1145 5.65067 24.8805 5.044 24.6205C4.43733 24.3432 3.874 24.0052 3.354 23.6065C2.85133 23.1905 2.444 22.6792 2.132 22.0725C1.82 21.4485 1.664 20.6685 1.664 19.7325C1.664 18.6058 1.93267 17.6352 2.47 16.8205C3.02467 16.0058 3.78733 15.3905 4.758 14.9745C5.72867 14.5412 6.84667 14.3245 8.112 14.3245C9.39467 14.3245 10.5647 14.5498 11.622 15.0005C12.6967 15.4512 13.5807 16.0665 14.274 16.8465L11.622 19.4725C11.0673 18.9005 10.504 18.4758 9.932 18.1985C9.37733 17.9212 8.74467 17.7825 8.034 17.7825C7.32333 17.7825 6.76 17.9212 6.344 18.1985C5.928 18.4585 5.72 18.8398 5.72 19.3425C5.72 19.8105 5.876 20.1918 6.188 20.4865C6.5 20.7638 6.90733 21.0065 7.41 21.2145C7.93 21.4225 8.49333 21.6305 9.1 21.8385C9.724 22.0465 10.3393 22.2892 10.946 22.5665C11.5527 22.8438 12.1073 23.1992 12.61 23.6325C13.13 24.0485 13.546 24.5858 13.858 25.2445C14.17 25.8858 14.326 26.6832 14.326 27.6365C14.326 29.3872 13.702 30.7652 12.454 31.7705C11.206 32.7585 9.48133 33.2525 7.28 33.2525ZM22.1782 33.2525C21.0169 33.2525 19.9855 33.0185 19.0842 32.5505C18.2002 32.0652 17.5069 31.4065 17.0042 30.5745C16.5015 29.7252 16.2502 28.7545 16.2502 27.6625V20.3305H20.2282V27.6105C20.2282 28.0438 20.2975 28.4165 20.4362 28.7285C20.5922 29.0405 20.8175 29.2832 21.1122 29.4565C21.4069 29.6298 21.7622 29.7165 22.1782 29.7165C22.7675 29.7165 23.2355 29.5345 23.5822 29.1705C23.9289 28.7892 24.1022 28.2692 24.1022 27.6105V20.3305H28.0802V27.6365C28.0802 28.7458 27.8289 29.7252 27.3262 30.5745C26.8235 31.4065 26.1302 32.0652 25.2462 32.5505C24.3622 33.0185 23.3395 33.2525 22.1782 33.2525ZM30.5778 32.9665V20.3305H34.5558V32.9665H30.5778ZM34.5558 26.0245L32.8918 24.7245C33.2212 23.2512 33.7758 22.1072 34.5558 21.2925C35.3358 20.4778 36.4192 20.0705 37.8058 20.0705C38.4125 20.0705 38.9412 20.1658 39.3918 20.3565C39.8598 20.5298 40.2672 20.8072 40.6138 21.1885L38.2478 24.1785C38.0745 23.9878 37.8578 23.8405 37.5978 23.7365C37.3378 23.6325 37.0432 23.5805 36.7138 23.5805C36.0552 23.5805 35.5265 23.7885 35.1278 24.2045C34.7465 24.6032 34.5558 25.2098 34.5558 26.0245ZM63.2241 33.2525C61.8547 33.2525 60.6327 32.9752 59.5581 32.4205C58.5007 31.8485 57.6687 31.0598 57.0621 30.0545C56.4554 29.0492 56.1521 27.9138 56.1521 26.6485C56.1521 25.3832 56.4467 24.2565 57.0361 23.2685C57.6427 22.2632 58.4574 21.4745 59.4801 20.9025C60.5027 20.3305 61.6554 20.0445 62.9381 20.0445C64.1861 20.0445 65.2867 20.3132 66.2401 20.8505C67.1934 21.3878 67.9387 22.1332 68.4761 23.0865C69.0307 24.0398 69.3081 25.1318 69.3081 26.3625C69.3081 26.5878 69.2907 26.8305 69.2561 27.0905C69.2387 27.3332 69.1954 27.6192 69.1261 27.9485L58.2321 27.9745V25.2445L67.4361 25.2185L65.7201 26.3625C65.7027 25.6345 65.5901 25.0365 65.3821 24.5685C65.1741 24.0832 64.8621 23.7192 64.4461 23.4765C64.0474 23.2165 63.5534 23.0865 62.9641 23.0865C62.3401 23.0865 61.7941 23.2338 61.3261 23.5285C60.8754 23.8058 60.5201 24.2045 60.2601 24.7245C60.0174 25.2445 59.8961 25.8772 59.8961 26.6225C59.8961 27.3678 60.0261 28.0092 60.2861 28.5465C60.5634 29.0665 60.9447 29.4738 61.4301 29.7685C61.9327 30.0458 62.5221 30.1845 63.1981 30.1845C63.8221 30.1845 64.3854 30.0805 64.8881 29.8725C65.3907 29.6472 65.8327 29.3178 66.2141 28.8845L68.3981 31.0685C67.7741 31.7965 67.0201 32.3425 66.1361 32.7065C65.2521 33.0705 64.2814 33.2525 63.2241 33.2525ZM71.2282 32.9665V20.3305H75.2062V32.9665H71.2282ZM73.2302 18.5885C72.6062 18.5885 72.0862 18.3805 71.6702 17.9645C71.2716 17.5312 71.0722 17.0112 71.0722 16.4045C71.0722 15.7805 71.2716 15.2605 71.6702 14.8445C72.0862 14.4285 72.6062 14.2205 73.2302 14.2205C73.8542 14.2205 74.3656 14.4285 74.7642 14.8445C75.1629 15.2605 75.3622 15.7805 75.3622 16.4045C75.3622 17.0112 75.1629 17.5312 74.7642 17.9645C74.3656 18.3805 73.8542 18.5885 73.2302 18.5885ZM86.3535 32.9665V25.7645C86.3535 25.1058 86.1455 24.5772 85.7295 24.1785C85.3308 23.7625 84.8195 23.5545 84.1955 23.5545C83.7622 23.5545 83.3808 23.6498 83.0515 23.8405C82.7222 24.0138 82.4622 24.2738 82.2715 24.6205C82.0808 24.9498 81.9855 25.3312 81.9855 25.7645L80.4515 25.0105C80.4515 24.0225 80.6682 23.1558 81.1015 22.4105C81.5348 21.6652 82.1328 21.0932 82.8955 20.6945C83.6755 20.2785 84.5508 20.0705 85.5215 20.0705C86.4575 20.0705 87.2808 20.2958 87.9915 20.7465C88.7195 21.1798 89.2915 21.7605 89.7075 22.4885C90.1235 23.2165 90.3315 24.0138 90.3315 24.8805V32.9665H86.3535ZM78.0075 32.9665V20.3305H81.9855V32.9665H78.0075ZM99.1264 33.2525C97.7571 33.2525 96.5351 32.9752 95.4604 32.4205C94.4031 31.8485 93.5711 31.0598 92.9644 30.0545C92.3578 29.0492 92.0544 27.9138 92.0544 26.6485C92.0544 25.3832 92.3491 24.2565 92.9384 23.2685C93.5451 22.2632 94.3598 21.4745 95.3824 20.9025C96.4051 20.3305 97.5578 20.0445 98.8404 20.0445C100.088 20.0445 101.189 20.3132 102.142 20.8505C103.096 21.3878 103.841 22.1332 104.378 23.0865C104.933 24.0398 105.21 25.1318 105.21 26.3625C105.21 26.5878 105.193 26.8305 105.158 27.0905C105.141 27.3332 105.098 27.6192 105.028 27.9485L94.1344 27.9745V25.2445L103.338 25.2185L101.622 26.3625C101.605 25.6345 101.492 25.0365 101.284 24.5685C101.076 24.0832 100.764 23.7192 100.348 23.4765C99.9498 23.2165 99.4558 23.0865 98.8664 23.0865C98.2424 23.0865 97.6964 23.2338 97.2284 23.5285C96.7778 23.8058 96.4224 24.2045 96.1624 24.7245C95.9198 25.2445 95.7984 25.8772 95.7984 26.6225C95.7984 27.3678 95.9284 28.0092 96.1884 28.5465C96.4658 29.0665 96.8471 29.4738 97.3324 29.7685C97.8351 30.0458 98.4244 30.1845 99.1004 30.1845C99.7244 30.1845 100.288 30.0805 100.79 29.8725C101.293 29.6472 101.735 29.3178 102.116 28.8845L104.3 31.0685C103.676 31.7965 102.922 32.3425 102.038 32.7065C101.154 33.0705 100.184 33.2525 99.1264 33.2525Z" fill="white"/>
<path d="M48.3971 34.8136L38.3768 17.8858L42.6843 17.1609L50.4554 30.9079L48.6863 31.2056L51.6068 15.6594L55.8629 14.9431L51.8584 34.2311L48.3971 34.8136Z" fill="#C2D4FF"/>
</svg>
