<svg width="21" height="23" viewBox="0 0 21 23" fill="none" xmlns="http://www.w3.org/2000/svg">
<path d="M10.5489 7.61801C9.79449 7.61801 9.05699 7.84739 8.42968 8.27715C7.80238 8.7069 7.31346 9.31773 7.02474 10.0324C6.73603 10.747 6.66049 11.5334 6.80767 12.2921C6.95486 13.0508 7.31816 13.7477 7.85164 14.2946C8.38511 14.8416 9.06481 15.2141 9.80476 15.365C10.5447 15.5159 11.3117 15.4385 12.0087 15.1425C12.7057 14.8464 13.3015 14.3451 13.7206 13.702C14.1398 13.0588 14.3635 12.3026 14.3635 11.5291C14.3624 10.4922 13.9601 9.49806 13.245 8.76484C12.5299 8.03162 11.5603 7.61919 10.5489 7.61801ZM10.5489 14.018C10.0688 14.018 9.59952 13.872 9.20032 13.5985C8.80113 13.325 8.49 12.9363 8.30627 12.4815C8.12254 12.0268 8.07447 11.5263 8.16814 11.0435C8.2618 10.5607 8.49299 10.1173 8.83248 9.7692C9.17196 9.42112 9.60449 9.18408 10.0754 9.08805C10.5463 8.99201 11.0343 9.0413 11.4779 9.22968C11.9214 9.41805 12.3006 9.73706 12.5673 10.1464C12.834 10.5556 12.9764 11.0368 12.9764 11.5291C12.9757 12.189 12.7197 12.8216 12.2646 13.2882C11.8095 13.7548 11.1925 14.0172 10.5489 14.018Z" fill="white"/>
<path d="M20.0669 14.4765L18.6898 13.3142C18.9339 12.1372 18.9339 10.9208 18.6898 9.74388L20.0669 8.58153C20.2257 8.4481 20.333 8.26105 20.3696 8.05389C20.4062 7.84673 20.3697 7.63298 20.2666 7.45092L18.8529 4.94058C18.7507 4.75793 18.5884 4.61856 18.3951 4.54746C18.2018 4.47636 17.9901 4.47818 17.798 4.55258L16.1264 5.19467C15.2557 4.38804 14.2284 3.77929 13.1121 3.40837L12.8188 1.60522C12.7856 1.39742 12.6813 1.20853 12.5246 1.07241C12.3679 0.9363 12.169 0.861857 11.9636 0.86243H9.13643C8.93106 0.861864 8.73221 0.936304 8.5755 1.07241C8.4188 1.20851 8.31449 1.39739 8.28127 1.60518L7.98816 3.40837C6.87179 3.77928 5.84453 4.38803 4.97378 5.19467L3.30209 4.55249C3.10997 4.47814 2.89831 4.47635 2.70503 4.54746C2.51174 4.61856 2.34947 4.75791 2.24728 4.94053L0.833677 7.45105C0.73058 7.63312 0.69407 7.84688 0.730686 8.05404C0.767301 8.26119 0.874651 8.44822 1.03351 8.58162L2.41052 9.74388C2.16639 10.9208 2.16639 12.1372 2.41052 13.3142L1.03338 14.4765C0.874546 14.6099 0.767226 14.797 0.730635 15.0041C0.694044 15.2113 0.730571 15.4251 0.833677 15.6071L2.24732 18.1175C2.34952 18.3001 2.51182 18.4395 2.70513 18.5106C2.89845 18.5817 3.11014 18.5799 3.30227 18.5055L4.97383 17.8634C5.84457 18.67 6.87183 19.2788 7.9882 19.6497L8.28132 21.4528C8.31453 21.6606 8.41882 21.8495 8.57552 21.9856C8.73221 22.1217 8.93106 22.1962 9.13643 22.1956H11.9636C12.169 22.1962 12.3679 22.1217 12.5246 21.9856C12.6813 21.8495 12.7856 21.6607 12.8188 21.4529L13.1119 19.6497C14.2283 19.2787 15.2556 18.67 16.1263 17.8634L17.798 18.5055C17.9901 18.5799 18.2017 18.5817 18.395 18.5106C18.5883 18.4395 18.7506 18.3001 18.8528 18.1175L20.2663 15.607C20.3694 15.425 20.406 15.2113 20.3695 15.0041C20.3329 14.797 20.2257 14.61 20.0669 14.4765ZM17.872 17.0152L15.7866 16.2141L15.4708 16.54C14.6019 17.4379 13.5152 18.0819 12.3227 18.4055L11.8892 18.5227L11.5231 20.7734H9.57727L9.21133 18.5227L8.77786 18.4055C7.58533 18.0819 6.49859 17.4379 5.62976 16.54L5.31397 16.2141L3.22823 17.0152L2.25547 15.2873L3.97328 13.8374L3.85624 13.3941C3.53438 12.1726 3.53438 10.8854 3.85624 9.66392L3.97328 9.22073L2.25547 7.77078L3.22844 6.04288L5.31384 6.84394L5.62963 6.51799C6.49846 5.62011 7.5852 4.97615 8.77773 4.65254L9.2112 4.53538L9.5771 2.28464H11.5231L11.8891 4.53538L12.3225 4.65254C13.5151 4.97615 14.6018 5.62011 15.4706 6.51799L15.7864 6.84394L17.8718 6.04288L18.8448 7.77074L17.127 9.22073L17.2441 9.66392C17.5659 10.8854 17.5659 12.1726 17.2441 13.3941L17.127 13.8374L18.8448 15.2873L17.872 17.0152Z" fill="white"/>
</svg>
