<svg width="88" height="33" viewBox="0 0 88 33" fill="none" xmlns="http://www.w3.org/2000/svg">
<path d="M0 16.5C0 7.3873 7.3873 0 16.5 0H71.5C80.6127 0 88 7.3873 88 16.5V16.5C88 25.6127 80.6127 33 71.5 33H16.5C7.3873 33 0 25.6127 0 16.5V16.5Z" fill="#EEC6BE"/>
<ellipse cx="17" cy="16.5" rx="12" ry="11.5" fill="#E09780"/>
<path d="M43.472 18.893V19.764H50.232V23.014H51.324V18.893H43.472ZM50.232 11.262V18.243H51.324V11.262H50.232ZM45.019 11.951C43.238 11.951 41.951 13.095 41.951 14.746C41.951 16.384 43.238 17.515 45.019 17.515C46.787 17.515 48.074 16.384 48.074 14.746C48.074 13.095 46.787 11.951 45.019 11.951ZM45.019 12.874C46.189 12.874 47.034 13.628 47.034 14.746C47.034 15.851 46.189 16.618 45.019 16.618C43.849 16.618 43.004 15.851 43.004 14.746C43.004 13.628 43.849 12.874 45.019 12.874ZM59.253 13.16V14.044H62.646V13.16H59.253ZM59.253 15.5V16.371H62.672V15.5H59.253ZM62.23 11.262V18.217H63.309V11.262H62.23ZM54.183 12.146V17.372H59.552V12.146H54.183ZM58.486 13.017V16.514H55.236V13.017H58.486ZM59.448 18.555C57.017 18.555 55.522 19.374 55.522 20.778C55.522 22.182 57.017 22.988 59.448 22.988C61.866 22.988 63.361 22.182 63.361 20.778C63.361 19.374 61.866 18.555 59.448 18.555ZM59.448 19.413C61.216 19.413 62.295 19.92 62.295 20.778C62.295 21.636 61.216 22.143 59.448 22.143C57.68 22.143 56.601 21.636 56.601 20.778C56.601 19.92 57.68 19.413 59.448 19.413Z" fill="black"/>
</svg>
