<svg width="88" height="33" viewBox="0 0 88 33" fill="none" xmlns="http://www.w3.org/2000/svg">
<path d="M0 16.5C0 7.3873 7.3873 0 16.5 0H71.5C80.6127 0 88 7.3873 88 16.5V16.5C88 25.6127 80.6127 33 71.5 33H16.5C7.3873 33 0 25.6127 0 16.5V16.5Z" fill="#C6DFCD"/>
<ellipse cx="68" cy="16.5" rx="12" ry="11.5" fill="#8CBF9C"/>
<path d="M22.472 18.893V19.764H29.232V23.014H30.324V18.893H22.472ZM29.232 11.262V18.243H30.324V11.262H29.232ZM24.019 11.951C22.238 11.951 20.951 13.095 20.951 14.746C20.951 16.384 22.238 17.515 24.019 17.515C25.787 17.515 27.074 16.384 27.074 14.746C27.074 13.095 25.787 11.951 24.019 11.951ZM24.019 12.874C25.189 12.874 26.034 13.628 26.034 14.746C26.034 15.851 25.189 16.618 24.019 16.618C22.849 16.618 22.004 15.851 22.004 14.746C22.004 13.628 22.849 12.874 24.019 12.874ZM38.253 13.16V14.044H41.646V13.16H38.253ZM38.253 15.5V16.371H41.672V15.5H38.253ZM41.23 11.262V18.217H42.309V11.262H41.23ZM33.183 12.146V17.372H38.552V12.146H33.183ZM37.486 13.017V16.514H34.236V13.017H37.486ZM38.448 18.555C36.017 18.555 34.522 19.374 34.522 20.778C34.522 22.182 36.017 22.988 38.448 22.988C40.866 22.988 42.361 22.182 42.361 20.778C42.361 19.374 40.866 18.555 38.448 18.555ZM38.448 19.413C40.216 19.413 41.295 19.92 41.295 20.778C41.295 21.636 40.216 22.143 38.448 22.143C36.68 22.143 35.601 21.636 35.601 20.778C35.601 19.92 36.68 19.413 38.448 19.413Z" fill="black"/>
</svg>
