<svg width="65" height="30" viewBox="0 0 65 30" fill="none" xmlns="http://www.w3.org/2000/svg">
<path d="M0 15C0 6.71573 6.71573 0 15 0H50C58.2843 0 65 6.71573 65 15V15C65 23.2843 58.2843 30 50 30H15C6.71573 30 0 23.2843 0 15V15Z" fill="#C8CDE6"/>
<circle cx="50" cy="15" r="9" fill="#393C56"/>
<path d="M24.3888 15.6741C24.3888 16.3935 24.2978 17.0478 24.1158 17.6371C23.9424 18.2178 23.6738 18.7205 23.3098 19.1451C22.9544 19.5698 22.5038 19.8948 21.9578 20.1201C21.4204 20.3455 20.7921 20.4581 20.0728 20.4581C19.3361 20.4581 18.6948 20.3455 18.1488 20.1201C17.6114 19.8861 17.1608 19.5611 16.7968 19.1451C16.4414 18.7205 16.1771 18.2135 16.0038 17.6241C15.8304 17.0348 15.7438 16.3805 15.7438 15.6611C15.7438 14.7078 15.8998 13.8758 16.2118 13.1651C16.5238 12.4545 17.0004 11.8998 17.6418 11.5011C18.2918 11.1025 19.1064 10.9031 20.0858 10.9031C21.0391 10.9031 21.8321 11.1025 22.4648 11.5011C23.1061 11.8911 23.5871 12.4458 23.9078 13.1651C24.2284 13.8758 24.3888 14.7121 24.3888 15.6741ZM17.2258 15.6741C17.2258 16.4195 17.3254 17.0608 17.5248 17.5981C17.7241 18.1268 18.0361 18.5385 18.4608 18.8331C18.8854 19.1191 19.4228 19.2621 20.0728 19.2621C20.7314 19.2621 21.2688 19.1191 21.6848 18.8331C22.1008 18.5385 22.4084 18.1268 22.6078 17.5981C22.8071 17.0608 22.9068 16.4195 22.9068 15.6741C22.9068 14.5561 22.6814 13.6851 22.2308 13.0611C21.7888 12.4285 21.0738 12.1121 20.0858 12.1121C19.4271 12.1121 18.8854 12.2551 18.4608 12.5411C18.0361 12.8271 17.7241 13.2345 17.5248 13.7631C17.3254 14.2918 17.2258 14.9288 17.2258 15.6741ZM34.0238 20.3281H32.3208L27.6278 12.8271H27.5758C27.5845 13.0005 27.5931 13.1868 27.6018 13.3861C27.6191 13.5855 27.6321 13.7978 27.6408 14.0231C27.6495 14.2398 27.6581 14.4651 27.6668 14.6991C27.6755 14.9245 27.6798 15.1541 27.6798 15.3881V20.3281H26.4058V11.0461H28.0958L32.7758 18.5081H32.8148C32.8061 18.3781 32.7975 18.2178 32.7888 18.0271C32.7801 17.8278 32.7715 17.6155 32.7628 17.3901C32.7628 17.1648 32.7585 16.9351 32.7498 16.7011C32.7411 16.4671 32.7325 16.2461 32.7238 16.0381V11.0461H34.0238V20.3281Z" fill="#454545"/>
</svg>
