<svg width="305" height="306" viewBox="0 0 305 306" fill="none" xmlns="http://www.w3.org/2000/svg">
<path d="M69.6893 28.3925H235.758V0.714352H69.6893V28.3925ZM28.1721 235.978V69.9097H0.493923V235.978H28.1721ZM235.758 277.496H69.6893V305.174H235.758V277.496ZM277.275 69.9097V235.978H304.953V69.9097H277.275ZM235.758 305.174C248.421 305.174 259.298 305.201 267.975 304.039C277.04 302.821 285.745 300.067 292.789 293.009L273.22 273.441C272.169 274.493 270.287 275.794 264.28 276.61C257.887 277.468 249.196 277.496 235.758 277.496V305.174ZM277.275 235.978C277.275 249.416 277.248 258.107 276.39 264.501C275.573 270.507 274.272 272.389 273.22 273.441L292.789 293.009C299.847 285.951 302.601 277.26 303.819 268.196C304.981 259.505 304.953 248.641 304.953 235.978H277.275ZM0.493923 235.978C0.493923 248.641 0.466245 259.519 1.62873 268.196C2.84656 277.26 5.60054 285.965 12.6585 293.009L32.2269 273.441C31.1751 272.389 29.8743 270.507 29.0578 264.501C28.1997 258.121 28.1721 249.416 28.1721 235.978H0.493923ZM69.6893 277.496C56.2515 277.496 47.5606 277.468 41.1669 276.61C35.1608 275.794 33.2787 274.493 32.2269 273.441L12.6585 293.009C19.7164 300.067 28.4073 302.821 37.4719 304.039C46.1628 305.201 57.0265 305.174 69.6893 305.174V277.496ZM235.758 28.3925C249.196 28.3925 257.887 28.4202 264.28 29.2782C270.287 30.0947 272.169 31.3956 273.22 32.4473L292.789 12.8789C285.731 5.82097 277.04 3.06699 267.975 1.84916C259.284 0.686674 248.421 0.714352 235.758 0.714352V28.3925ZM304.953 69.9097C304.953 57.2469 304.981 46.3694 303.819 37.6923C302.601 28.6277 299.847 19.923 292.789 12.8789L273.22 32.4473C274.272 33.4991 275.573 35.3812 276.39 41.3874C277.248 47.7672 277.275 56.472 277.275 69.9097H304.953ZM69.6893 0.714352C57.0265 0.714352 46.149 0.686674 37.4719 1.84916C28.4073 3.06699 19.7025 5.82097 12.6585 12.8789L32.2269 32.4473C33.2787 31.3956 35.1608 30.0947 41.1669 29.2782C47.5467 28.4202 56.2515 28.3925 69.6893 28.3925V0.714352ZM28.1721 69.9097C28.1721 56.472 28.1997 47.781 29.0578 41.3874C29.8743 35.3812 31.1751 33.4991 32.2269 32.4473L12.6585 12.8789C5.60054 19.9368 2.84656 28.6277 1.62873 37.6923C0.466245 46.3833 0.493923 57.2469 0.493923 69.9097H28.1721Z" fill="black"/>
<path d="M152.724 206.169L122.651 176.886C104.176 158.895 94.9317 149.886 83.4868 149.886C72.0695 149.886 62.825 158.881 44.3637 176.899L14.3329 206.169M291.114 157.511L247.59 115.219C228.963 97.1172 219.636 88.0664 208.149 88.1218C196.649 88.191 187.432 97.3386 168.985 115.662L120.575 163.738" stroke="black" stroke-width="27.6781" stroke-linecap="round" stroke-linejoin="round"/>
</svg>
