<svg width="27" height="28" viewBox="0 0 27 28" fill="none" xmlns="http://www.w3.org/2000/svg">
<path d="M2.23833 26.6C2.23497 26.9679 2.40664 27.3219 2.71568 27.5843C3.02471 27.8468 3.44588 27.9963 3.88682 28H22.9622C23.4031 27.9963 23.8243 27.8468 24.1333 27.5843C24.4424 27.3219 24.614 26.9679 24.6107 26.6V7.93335H2.23833V26.6ZM4.47556 9.80001H22.3734V26.1333H4.47556V9.80001Z" fill="#1A2051"/>
<path d="M9.50872 11.6666H7.27148V23.3333H9.50872V11.6666Z" fill="#1A2051"/>
<path d="M14.5419 11.6666H12.3047V23.3333H14.5419V11.6666Z" fill="#1A2051"/>
<path d="M19.5771 11.6666H17.3398V23.3333H19.5771V11.6666Z" fill="#1A2051"/>
<path d="M18.4572 4.19999V1.4C18.4572 0.614949 17.7938 0 16.9471 0H9.89976C9.05297 0 8.38963 0.614949 8.38963 1.4V4.19999H0V6.06666H26.8468V4.19999H18.4572ZM10.6269 1.86666H16.2199V4.19999H10.6269V1.86666Z" fill="#1A2051"/>
</svg>
