<svg width="147" height="45" viewBox="0 0 147 45" fill="none" xmlns="http://www.w3.org/2000/svg">
<path d="M10.08 35.3959C7.992 35.3959 6.192 35.0599 4.68 34.3879C3.192 33.6919 1.824 32.6479 0.576 31.2559L4.248 27.6199C5.064 28.5559 5.964 29.2879 6.948 29.8159C7.956 30.3199 9.12 30.5719 10.44 30.5719C11.64 30.5719 12.564 30.3559 13.212 29.9239C13.884 29.4919 14.22 28.8919 14.22 28.1239C14.22 27.4279 14.004 26.8639 13.572 26.4319C13.14 25.9999 12.564 25.6279 11.844 25.3159C11.148 25.0039 10.368 24.7039 9.504 24.4159C8.664 24.1279 7.824 23.8039 6.984 23.4439C6.144 23.0599 5.364 22.5919 4.644 22.0399C3.948 21.4639 3.384 20.7559 2.952 19.9159C2.52 19.0519 2.304 17.9719 2.304 16.6759C2.304 15.1159 2.676 13.7719 3.42 12.6439C4.188 11.5159 5.244 10.6639 6.588 10.0879C7.932 9.48794 9.48 9.18794 11.232 9.18794C13.008 9.18794 14.628 9.49994 16.092 10.1239C17.58 10.7479 18.804 11.5999 19.764 12.6799L16.092 16.3159C15.324 15.5239 14.544 14.9359 13.752 14.5519C12.984 14.1679 12.108 13.9759 11.124 13.9759C10.14 13.9759 9.36 14.1679 8.784 14.5519C8.208 14.9119 7.92 15.4399 7.92 16.1359C7.92 16.7839 8.136 17.3119 8.568 17.7199C9 18.1039 9.564 18.4399 10.26 18.7279C10.98 19.0159 11.76 19.3039 12.6 19.5919C13.464 19.8799 14.316 20.2159 15.156 20.5999C15.996 20.9839 16.764 21.4759 17.46 22.0759C18.18 22.6519 18.756 23.3959 19.188 24.3079C19.62 25.1959 19.836 26.2999 19.836 27.6199C19.836 30.0439 18.972 31.9519 17.244 33.3439C15.516 34.7119 13.128 35.3959 10.08 35.3959ZM30.7083 35.3959C29.1003 35.3959 27.6723 35.0719 26.4243 34.4239C25.2003 33.7519 24.2403 32.8399 23.5443 31.6879C22.8483 30.5119 22.5003 29.1679 22.5003 27.6559V17.5039H28.0083V27.5839C28.0083 28.1839 28.1043 28.6999 28.2963 29.1319C28.5123 29.5639 28.8243 29.8999 29.2323 30.1399C29.6403 30.3799 30.1323 30.4999 30.7083 30.4999C31.5243 30.4999 32.1723 30.2479 32.6523 29.7439C33.1323 29.2159 33.3723 28.4959 33.3723 27.5839V17.5039H38.8803V27.6199C38.8803 29.1559 38.5323 30.5119 37.8363 31.6879C37.1403 32.8399 36.1803 33.7519 34.9563 34.4239C33.7323 35.0719 32.3163 35.3959 30.7083 35.3959ZM42.3385 34.9999V17.5039H47.8465V34.9999H42.3385ZM47.8465 25.3879L45.5425 23.5879C45.9985 21.5479 46.7665 19.9639 47.8465 18.8359C48.9265 17.7079 50.4265 17.1439 52.3465 17.1439C53.1865 17.1439 53.9185 17.2759 54.5425 17.5399C55.1905 17.7799 55.7545 18.1639 56.2345 18.6919L52.9585 22.8319C52.7185 22.5679 52.4185 22.3639 52.0585 22.2199C51.6985 22.0759 51.2905 22.0039 50.8345 22.0039C49.9225 22.0039 49.1905 22.2919 48.6385 22.8679C48.1105 23.4199 47.8465 24.2599 47.8465 25.3879ZM87.541 35.3959C85.645 35.3959 83.953 35.0119 82.465 34.2439C81.001 33.4519 79.849 32.3599 79.009 30.9679C78.169 29.5759 77.749 28.0039 77.749 26.2519C77.749 24.4999 78.157 22.9399 78.973 21.5719C79.813 20.1799 80.941 19.0879 82.357 18.2959C83.773 17.5039 85.369 17.1079 87.145 17.1079C88.873 17.1079 90.397 17.4799 91.717 18.2239C93.037 18.9679 94.069 19.9999 94.813 21.3199C95.581 22.6399 95.965 24.1519 95.965 25.8559C95.965 26.1679 95.941 26.5039 95.893 26.8639C95.869 27.1999 95.809 27.5959 95.713 28.0519L80.629 28.0879V24.3079L93.373 24.2719L90.997 25.8559C90.973 24.8479 90.817 24.0199 90.529 23.3719C90.241 22.6999 89.809 22.1959 89.233 21.8599C88.681 21.4999 87.997 21.3199 87.181 21.3199C86.317 21.3199 85.561 21.5239 84.913 21.9319C84.289 22.3159 83.797 22.8679 83.437 23.5879C83.101 24.3079 82.933 25.1839 82.933 26.2159C82.933 27.2479 83.113 28.1359 83.473 28.8799C83.857 29.5999 84.385 30.1639 85.057 30.5719C85.753 30.9559 86.569 31.1479 87.505 31.1479C88.369 31.1479 89.149 31.0039 89.845 30.7159C90.541 30.4039 91.153 29.9479 91.681 29.3479L94.705 32.3719C93.841 33.3799 92.797 34.1359 91.573 34.6399C90.349 35.1439 89.005 35.3959 87.541 35.3959ZM98.6237 34.9999V17.5039H104.132V34.9999H98.6237ZM101.396 15.0919C100.532 15.0919 99.8117 14.8039 99.2357 14.2279C98.6837 13.6279 98.4077 12.9079 98.4077 12.0679C98.4077 11.2039 98.6837 10.4839 99.2357 9.90794C99.8117 9.33194 100.532 9.04394 101.396 9.04394C102.26 9.04394 102.968 9.33194 103.52 9.90794C104.072 10.4839 104.348 11.2039 104.348 12.0679C104.348 12.9079 104.072 13.6279 103.52 14.2279C102.968 14.8039 102.26 15.0919 101.396 15.0919ZM119.566 34.9999V25.0279C119.566 24.1159 119.278 23.3839 118.702 22.8319C118.15 22.2559 117.442 21.9679 116.578 21.9679C115.978 21.9679 115.45 22.0999 114.994 22.3639C114.538 22.6039 114.178 22.9639 113.914 23.4439C113.65 23.8999 113.518 24.4279 113.518 25.0279L111.394 23.9839C111.394 22.6159 111.694 21.4159 112.294 20.3839C112.894 19.3519 113.722 18.5599 114.778 18.0079C115.858 17.4319 117.07 17.1439 118.414 17.1439C119.71 17.1439 120.85 17.4559 121.834 18.0799C122.842 18.6799 123.634 19.4839 124.21 20.4919C124.786 21.4999 125.074 22.6039 125.074 23.8039V34.9999H119.566ZM108.01 34.9999V17.5039H113.518V34.9999H108.01ZM137.252 35.3959C135.356 35.3959 133.664 35.0119 132.176 34.2439C130.712 33.4519 129.56 32.3599 128.72 30.9679C127.88 29.5759 127.46 28.0039 127.46 26.2519C127.46 24.4999 127.868 22.9399 128.684 21.5719C129.524 20.1799 130.652 19.0879 132.068 18.2959C133.484 17.5039 135.08 17.1079 136.856 17.1079C138.584 17.1079 140.108 17.4799 141.428 18.2239C142.748 18.9679 143.78 19.9999 144.524 21.3199C145.292 22.6399 145.676 24.1519 145.676 25.8559C145.676 26.1679 145.652 26.5039 145.604 26.8639C145.58 27.1999 145.52 27.5959 145.424 28.0519L130.34 28.0879V24.3079L143.084 24.2719L140.708 25.8559C140.684 24.8479 140.528 24.0199 140.24 23.3719C139.952 22.6999 139.52 22.1959 138.944 21.8599C138.392 21.4999 137.708 21.3199 136.892 21.3199C136.028 21.3199 135.272 21.5239 134.624 21.9319C134 22.3159 133.508 22.8679 133.148 23.5879C132.812 24.3079 132.644 25.1839 132.644 26.2159C132.644 27.2479 132.824 28.1359 133.184 28.8799C133.568 29.5999 134.096 30.1639 134.768 30.5719C135.464 30.9559 136.28 31.1479 137.216 31.1479C138.08 31.1479 138.86 31.0039 139.556 30.7159C140.252 30.4039 140.864 29.9479 141.392 29.3479L144.416 32.3719C143.552 33.3799 142.508 34.1359 141.284 34.6399C140.06 35.1439 138.716 35.3959 137.252 35.3959Z" fill="#071B39"/>
<path d="M66.5656 37.3281L52.4744 13.8495L58.4462 12.8923L69.3812 31.9554L66.9285 32.3485L70.8163 10.9097L76.717 9.96395L71.3644 36.5589L66.5656 37.3281Z" fill="#3568EB"/>
</svg>
