<svg width="182" height="45" viewBox="0 0 182 45" fill="none" xmlns="http://www.w3.org/2000/svg">
<path d="M10.08 36.3625C7.992 36.3625 6.192 36.0265 4.68 35.3545C3.192 34.6585 1.824 33.6145 0.576 32.2225L4.248 28.5865C5.064 29.5225 5.964 30.2545 6.948 30.7825C7.956 31.2865 9.12 31.5385 10.44 31.5385C11.64 31.5385 12.564 31.3225 13.212 30.8905C13.884 30.4585 14.22 29.8585 14.22 29.0905C14.22 28.3945 14.004 27.8305 13.572 27.3985C13.14 26.9665 12.564 26.5945 11.844 26.2825C11.148 25.9705 10.368 25.6705 9.504 25.3825C8.664 25.0945 7.824 24.7705 6.984 24.4105C6.144 24.0265 5.364 23.5585 4.644 23.0065C3.948 22.4305 3.384 21.7225 2.952 20.8825C2.52 20.0185 2.304 18.9385 2.304 17.6425C2.304 16.0825 2.676 14.7385 3.42 13.6105C4.188 12.4825 5.244 11.6305 6.588 11.0545C7.932 10.4545 9.48 10.1545 11.232 10.1545C13.008 10.1545 14.628 10.4665 16.092 11.0905C17.58 11.7145 18.804 12.5665 19.764 13.6465L16.092 17.2825C15.324 16.4905 14.544 15.9025 13.752 15.5185C12.984 15.1345 12.108 14.9425 11.124 14.9425C10.14 14.9425 9.36 15.1345 8.784 15.5185C8.208 15.8785 7.92 16.4065 7.92 17.1025C7.92 17.7505 8.136 18.2785 8.568 18.6865C9 19.0705 9.564 19.4065 10.26 19.6945C10.98 19.9825 11.76 20.2705 12.6 20.5585C13.464 20.8465 14.316 21.1825 15.156 21.5665C15.996 21.9505 16.764 22.4425 17.46 23.0425C18.18 23.6185 18.756 24.3625 19.188 25.2745C19.62 26.1625 19.836 27.2665 19.836 28.5865C19.836 31.0105 18.972 32.9185 17.244 34.3105C15.516 35.6785 13.128 36.3625 10.08 36.3625ZM30.7083 36.3625C29.1003 36.3625 27.6723 36.0385 26.4243 35.3905C25.2003 34.7185 24.2403 33.8065 23.5443 32.6545C22.8483 31.4785 22.5003 30.1345 22.5003 28.6225V18.4705H28.0083V28.5505C28.0083 29.1505 28.1043 29.6665 28.2963 30.0985C28.5123 30.5305 28.8243 30.8665 29.2323 31.1065C29.6403 31.3465 30.1323 31.4665 30.7083 31.4665C31.5243 31.4665 32.1723 31.2145 32.6523 30.7105C33.1323 30.1825 33.3723 29.4625 33.3723 28.5505V18.4705H38.8803V28.5865C38.8803 30.1225 38.5323 31.4785 37.8363 32.6545C37.1403 33.8065 36.1803 34.7185 34.9563 35.3905C33.7323 36.0385 32.3163 36.3625 30.7083 36.3625ZM42.3385 35.9665V18.4705H47.8465V35.9665H42.3385ZM47.8465 26.3545L45.5425 24.5545C45.9985 22.5145 46.7665 20.9305 47.8465 19.8025C48.9265 18.6745 50.4265 18.1105 52.3465 18.1105C53.1865 18.1105 53.9185 18.2425 54.5425 18.5065C55.1905 18.7465 55.7545 19.1305 56.2345 19.6585L52.9585 23.7985C52.7185 23.5345 52.4185 23.3305 52.0585 23.1865C51.6985 23.0425 51.2905 22.9705 50.8345 22.9705C49.9225 22.9705 49.1905 23.2585 48.6385 23.8345C48.1105 24.3865 47.8465 25.2265 47.8465 26.3545ZM87.541 36.3625C85.645 36.3625 83.953 35.9785 82.465 35.2105C81.001 34.4185 79.849 33.3265 79.009 31.9345C78.169 30.5425 77.749 28.9705 77.749 27.2185C77.749 25.4665 78.157 23.9065 78.973 22.5385C79.813 21.1465 80.941 20.0545 82.357 19.2625C83.773 18.4705 85.369 18.0745 87.145 18.0745C88.873 18.0745 90.397 18.4465 91.717 19.1905C93.037 19.9345 94.069 20.9665 94.813 22.2865C95.581 23.6065 95.965 25.1185 95.965 26.8225C95.965 27.1345 95.941 27.4705 95.893 27.8305C95.869 28.1665 95.809 28.5625 95.713 29.0185L80.629 29.0545V25.2745L93.373 25.2385L90.997 26.8225C90.973 25.8145 90.817 24.9865 90.529 24.3385C90.241 23.6665 89.809 23.1625 89.233 22.8265C88.681 22.4665 87.997 22.2865 87.181 22.2865C86.317 22.2865 85.561 22.4905 84.913 22.8985C84.289 23.2825 83.797 23.8345 83.437 24.5545C83.101 25.2745 82.933 26.1505 82.933 27.1825C82.933 28.2145 83.113 29.1025 83.473 29.8465C83.857 30.5665 84.385 31.1305 85.057 31.5385C85.753 31.9225 86.569 32.1145 87.505 32.1145C88.369 32.1145 89.149 31.9705 89.845 31.6825C90.541 31.3705 91.153 30.9145 91.681 30.3145L94.705 33.3385C93.841 34.3465 92.797 35.1025 91.573 35.6065C90.349 36.1105 89.005 36.3625 87.541 36.3625ZM98.6237 35.9665V18.4705H104.132V35.9665H98.6237ZM101.396 16.0585C100.532 16.0585 99.8117 15.7705 99.2357 15.1945C98.6837 14.5945 98.4077 13.8745 98.4077 13.0345C98.4077 12.1705 98.6837 11.4505 99.2357 10.8745C99.8117 10.2985 100.532 10.0105 101.396 10.0105C102.26 10.0105 102.968 10.2985 103.52 10.8745C104.072 11.4505 104.348 12.1705 104.348 13.0345C104.348 13.8745 104.072 14.5945 103.52 15.1945C102.968 15.7705 102.26 16.0585 101.396 16.0585ZM119.566 35.9665V25.9945C119.566 25.0825 119.278 24.3505 118.702 23.7985C118.15 23.2225 117.442 22.9345 116.578 22.9345C115.978 22.9345 115.45 23.0665 114.994 23.3305C114.538 23.5705 114.178 23.9305 113.914 24.4105C113.65 24.8665 113.518 25.3945 113.518 25.9945L111.394 24.9505C111.394 23.5825 111.694 22.3825 112.294 21.3505C112.894 20.3185 113.722 19.5265 114.778 18.9745C115.858 18.3985 117.07 18.1105 118.414 18.1105C119.71 18.1105 120.85 18.4225 121.834 19.0465C122.842 19.6465 123.634 20.4505 124.21 21.4585C124.786 22.4665 125.074 23.5705 125.074 24.7705V35.9665H119.566ZM108.01 35.9665V18.4705H113.518V35.9665H108.01ZM137.252 36.3625C135.356 36.3625 133.664 35.9785 132.176 35.2105C130.712 34.4185 129.56 33.3265 128.72 31.9345C127.88 30.5425 127.46 28.9705 127.46 27.2185C127.46 25.4665 127.868 23.9065 128.684 22.5385C129.524 21.1465 130.652 20.0545 132.068 19.2625C133.484 18.4705 135.08 18.0745 136.856 18.0745C138.584 18.0745 140.108 18.4465 141.428 19.1905C142.748 19.9345 143.78 20.9665 144.524 22.2865C145.292 23.6065 145.676 25.1185 145.676 26.8225C145.676 27.1345 145.652 27.4705 145.604 27.8305C145.58 28.1665 145.52 28.5625 145.424 29.0185L130.34 29.0545V25.2745L143.084 25.2385L140.708 26.8225C140.684 25.8145 140.528 24.9865 140.24 24.3385C139.952 23.6665 139.52 23.1625 138.944 22.8265C138.392 22.4665 137.708 22.2865 136.892 22.2865C136.028 22.2865 135.272 22.4905 134.624 22.8985C134 23.2825 133.508 23.8345 133.148 24.5545C132.812 25.2745 132.644 26.1505 132.644 27.1825C132.644 28.2145 132.824 29.1025 133.184 29.8465C133.568 30.5665 134.096 31.1305 134.768 31.5385C135.464 31.9225 136.28 32.1145 137.216 32.1145C138.08 32.1145 138.86 31.9705 139.556 31.6825C140.252 31.3705 140.864 30.9145 141.392 30.3145L144.416 33.3385C143.552 34.3465 142.508 35.1025 141.284 35.6065C140.06 36.1105 138.716 36.3625 137.252 36.3625Z" fill="white"/>
<path d="M69.5656 37.3281L55.4744 13.8496L61.4462 12.8924L72.3812 31.9555L69.9285 32.3486L73.8163 10.9098L79.717 9.96401L74.3644 36.559L69.5656 37.3281Z" fill="#C2D4FF"/>
</svg>
