<svg width="64" height="29" viewBox="0 0 64 29" fill="none" xmlns="http://www.w3.org/2000/svg">
<path d="M0 14.5C0 6.49187 6.49187 0 14.5 0H49.5C57.5081 0 64 6.49187 64 14.5V14.5C64 22.5081 57.5081 29 49.5 29H14.5C6.49187 29 0 22.5081 0 14.5V14.5Z" fill="#DED9D9"/>
<ellipse cx="13.7846" cy="14.5008" rx="8.86154" ry="8.7" fill="#7E7875"/>
<path d="M36.7261 14.6194C36.7261 15.3388 36.6351 15.9931 36.4531 16.5824C36.2798 17.1631 36.0111 17.6658 35.6471 18.0904C35.2918 18.5151 34.8411 18.8401 34.2951 19.0654C33.7578 19.2908 33.1294 19.4034 32.4101 19.4034C31.6734 19.4034 31.0321 19.2908 30.4861 19.0654C29.9488 18.8314 29.4981 18.5064 29.1341 18.0904C28.7788 17.6658 28.5144 17.1588 28.3411 16.5694C28.1678 15.9801 28.0811 15.3258 28.0811 14.6064C28.0811 13.6531 28.2371 12.8211 28.5491 12.1104C28.8611 11.3998 29.3378 10.8451 29.9791 10.4464C30.6291 10.0478 31.4438 9.84844 32.4231 9.84844C33.3764 9.84844 34.1694 10.0478 34.8021 10.4464C35.4434 10.8364 35.9244 11.3911 36.2451 12.1104C36.5658 12.8211 36.7261 13.6574 36.7261 14.6194ZM29.5631 14.6194C29.5631 15.3648 29.6628 16.0061 29.8621 16.5434C30.0614 17.0721 30.3734 17.4838 30.7981 17.7784C31.2228 18.0644 31.7601 18.2074 32.4101 18.2074C33.0688 18.2074 33.6061 18.0644 34.0221 17.7784C34.4381 17.4838 34.7458 17.0721 34.9451 16.5434C35.1444 16.0061 35.2441 15.3648 35.2441 14.6194C35.2441 13.5014 35.0188 12.6304 34.5681 12.0064C34.1261 11.3738 33.4111 11.0574 32.4231 11.0574C31.7644 11.0574 31.2228 11.2004 30.7981 11.4864C30.3734 11.7724 30.0614 12.1798 29.8621 12.7084C29.6628 13.2371 29.5631 13.8741 29.5631 14.6194ZM40.1341 19.2734H38.7431V9.99144H43.9691V11.1874H40.1341V14.2164H43.7221V15.4124H40.1341V19.2734ZM47.0023 19.2734H45.6113V9.99144H50.8373V11.1874H47.0023V14.2164H50.5903V15.4124H47.0023V19.2734Z" fill="#797372"/>
</svg>
